<svg width="37" height="37" viewBox="0 0 37 37" fill="none" xmlns="http://www.w3.org/2000/svg">
<circle cx="18.5" cy="18.5" r="18.5" fill="#FF9800" fill-opacity="0.3"/>
<path d="M17.6381 10.0013C17.6362 10.0033 17.4799 10.0112 17.2924 10.0191C17.1049 10.027 16.9253 10.0349 16.8921 10.0389C16.7592 10.0508 16.5913 10.0706 16.4819 10.0884C16.0483 10.1616 15.8745 10.1913 15.8628 10.1992C15.851 10.2071 15.6811 10.2447 15.603 10.2566C15.562 10.2625 15.021 10.4189 14.9682 10.4387C14.9526 10.4466 14.935 10.4525 14.9292 10.4545C14.9233 10.4565 14.9018 10.4644 14.8803 10.4723C14.8588 10.4803 14.7749 10.5119 14.6948 10.5436C14.6147 10.5733 14.5268 10.6049 14.4995 10.6129C14.4526 10.6267 14.3999 10.6505 14.1088 10.785C13.9311 10.8662 13.5971 11.0404 13.4448 11.1274C13.3745 11.169 13.2788 11.2244 13.2299 11.2521C13.0854 11.3353 12.9272 11.4402 12.9213 11.458C12.9174 11.4659 12.9057 11.4738 12.894 11.4738C12.8823 11.4738 12.8413 11.4995 12.8003 11.5332C12.7592 11.5648 12.7163 11.5925 12.7046 11.5925C12.6928 11.5925 12.6831 11.5985 12.6831 11.6064C12.6811 11.6163 12.6362 11.6539 12.5835 11.6915C12.0366 12.0774 11.3061 12.784 10.8862 13.3342C10.8491 13.3837 10.8139 13.4272 10.8081 13.4332C10.7768 13.4609 10.3588 14.0705 10.3022 14.1714C10.2827 14.207 10.2026 14.3436 10.1264 14.4782C9.56978 15.4519 9.16353 16.7087 9.0522 17.8071C9.04049 17.9219 9.02681 18.0506 9.02095 18.0941C8.99947 18.2821 8.99166 19.1668 9.01119 19.4202C9.05611 20.0357 9.19674 20.8412 9.33541 21.2727C9.35103 21.3221 9.36666 21.3795 9.37056 21.4013C9.40572 21.5656 9.68306 22.2919 9.82955 22.6007C10.3022 23.5883 10.8491 24.3641 11.603 25.1103C11.935 25.4408 11.978 25.4804 12.2436 25.6961C13.5639 26.7708 15.0756 27.4041 16.7768 27.5981C17.1596 27.6416 18.1284 27.6456 18.5131 27.608C20.2436 27.4318 21.8686 26.747 23.2104 25.6268C23.5464 25.3458 24.0053 24.8846 24.3452 24.4829C24.3745 24.4512 24.4799 24.3127 24.5815 24.1781C25.5815 22.852 26.1772 21.3063 26.3374 19.628C26.3647 19.3311 26.3745 18.575 26.353 18.2623C26.3139 17.6567 26.2143 17.0768 26.0327 16.392C26.0171 16.3267 25.9995 16.2634 25.9975 16.2495C25.9936 16.2357 25.9858 16.2179 25.978 16.2119C25.9702 16.204 25.9643 16.1842 25.9643 16.1684C25.9643 16.1387 25.81 15.6954 25.7592 15.5806C25.7456 15.5469 25.7143 15.4737 25.6909 15.4143C25.601 15.1808 25.3647 14.6959 25.2456 14.494C25.2007 14.4208 25.1635 14.3574 25.1635 14.3535C25.1635 14.3377 24.8393 13.8231 24.7885 13.7597C24.7807 13.7479 24.7182 13.6647 24.6518 13.5737C24.4272 13.2709 24.3745 13.2016 24.1948 12.9938C23.9741 12.7405 23.5132 12.2773 23.3276 12.1269C22.9565 11.8221 22.8764 11.7568 22.8393 11.7311C22.8159 11.7153 22.7827 11.6895 22.7671 11.6737C22.7514 11.6579 22.685 11.6104 22.6186 11.5668C22.5522 11.5233 22.4936 11.4837 22.4878 11.4758C22.4819 11.4698 22.4467 11.4461 22.4096 11.4263C22.3725 11.4045 22.3159 11.3669 22.2866 11.3412C22.2553 11.3155 22.2221 11.2957 22.2124 11.2957C22.2026 11.2957 22.1577 11.2719 22.1147 11.2442C22.0698 11.2165 21.9936 11.171 21.9448 11.1433C21.894 11.1156 21.8491 11.0839 21.8432 11.076C21.8374 11.0661 21.8139 11.0562 21.7944 11.0522C21.7729 11.0503 21.7339 11.0324 21.7065 11.0146C21.6264 10.9612 20.9799 10.6505 20.8862 10.6208C20.8589 10.6129 20.7885 10.5871 20.7299 10.5634C20.5698 10.5 20.3374 10.4229 20.271 10.411C20.2397 10.405 20.2085 10.3952 20.2026 10.3872C20.1967 10.3773 20.1714 10.3655 20.144 10.3595C20.1167 10.3536 20.0073 10.3259 19.9018 10.2982C19.6948 10.2428 19.6538 10.2329 19.4702 10.1972C19.4487 10.1933 19.4292 10.1893 19.4272 10.1873C19.4174 10.1794 19.2436 10.1458 19.1772 10.1379C19.1674 10.1359 19.1264 10.1299 19.0893 10.122C18.935 10.0923 18.5542 10.0488 18.2885 10.029C18.0444 10.0112 17.6479 9.99536 17.6381 10.0013ZM18.5034 10.9097C19.1987 10.9869 19.7378 11.1116 20.3647 11.3432C22.4526 12.1091 24.1733 13.7934 24.9858 15.8636C25.1323 16.2357 25.3217 16.8552 25.3667 17.1065C25.3725 17.1322 25.3803 17.1698 25.3862 17.1896C25.3921 17.2074 25.3999 17.2589 25.4077 17.3024C25.4135 17.346 25.4214 17.3955 25.4272 17.4113C25.4409 17.4568 25.4917 17.8329 25.5171 18.0644C25.5444 18.3296 25.5561 19.1193 25.5346 19.3905C25.5014 19.7942 25.4878 19.8991 25.4057 20.3405C25.3432 20.6749 25.1987 21.237 25.144 21.3597C25.1342 21.3815 25.1089 21.4528 25.0874 21.5181C24.9389 21.9693 24.6128 22.6363 24.2983 23.135C24.2319 23.2419 24.1635 23.3448 24.1479 23.3627C24.1323 23.3824 24.0835 23.4478 24.0405 23.5071C23.9135 23.6853 23.7612 23.8812 23.6245 24.0395C23.3706 24.3364 22.7866 24.9005 22.5737 25.0568C22.5385 25.0806 22.4428 25.1538 22.3589 25.2191C22.0698 25.4408 21.5796 25.7515 21.3452 25.8643C21.271 25.8999 21.2046 25.9356 21.1987 25.9415C21.1538 25.9969 20.1674 26.3967 20.0796 26.3967C20.062 26.3967 20.0464 26.4066 20.0464 26.4205C20.0464 26.4323 20.0424 26.4383 20.0346 26.4323C20.0288 26.4264 19.9839 26.4343 19.9331 26.4502C19.8237 26.4838 19.5835 26.5531 19.5288 26.5649C19.5073 26.5709 19.4506 26.5828 19.4018 26.5946C19.3061 26.6164 18.9975 26.6718 18.9038 26.6857C18.8725 26.6896 18.8022 26.7015 18.7475 26.7114C18.5776 26.745 18.1694 26.7728 17.7905 26.7787C17.3589 26.7846 16.8901 26.753 16.5112 26.6936C16.0151 26.6144 15.4682 26.4818 15.1635 26.367C14.7006 26.1948 14.1655 25.9633 14.1284 25.9197C14.1225 25.9138 14.0874 25.898 14.0503 25.8821C13.9878 25.8584 13.8686 25.7931 13.7124 25.6961C13.6772 25.6743 13.6323 25.6486 13.6108 25.6367C13.5893 25.6229 13.5073 25.5694 13.4272 25.516C13.3491 25.4606 13.2631 25.4032 13.2378 25.3873C13.0698 25.2765 12.6088 24.9143 12.4585 24.7738C12.3842 24.7045 12.1362 24.471 12.0893 24.4255C12.0463 24.3839 11.7163 24.0158 11.6772 23.9683C11.6557 23.9406 11.5952 23.8614 11.5405 23.7941C11.1108 23.2518 10.7846 22.7135 10.4995 22.0821C10.1557 21.3182 9.97603 20.6314 9.84127 19.5686C9.81783 19.3727 9.81588 18.4048 9.84127 18.1337C9.9897 16.491 10.5971 15.0106 11.6557 13.7103C11.8315 13.4925 12.3686 12.9483 12.5952 12.7563C13.9174 11.6361 15.4253 11.0146 17.1557 10.88C17.4526 10.8563 18.1733 10.8721 18.5034 10.9097Z" fill="#FF9800"/>
<path d="M16.3295 12.7326C16.3276 12.7345 16.2456 12.7405 16.1459 12.7484C16.0463 12.7543 15.9526 12.7662 15.935 12.7722C15.8608 12.8018 15.8569 12.8493 15.851 13.6509C15.8471 14.1754 15.8393 14.4465 15.8237 14.4762C15.7807 14.5613 15.7416 14.5653 14.7299 14.5692C14.2006 14.5732 13.7534 14.5811 13.7338 14.589C13.6733 14.6167 13.6596 14.7058 13.6538 15.066C13.6459 15.5034 13.6635 15.8359 13.6967 15.8755C13.7163 15.8992 13.8061 15.9052 14.2026 15.9111C14.6577 15.917 14.6909 15.919 14.7827 15.9626C14.9077 16.0219 14.9604 16.0714 15.0229 16.1941L15.0717 16.2931L15.0737 18.6562C15.0756 19.9565 15.0698 21.1044 15.062 21.2074C15.0502 21.3914 15.0483 21.3954 14.9741 21.4627C14.851 21.5775 14.8334 21.5814 14.2885 21.5953C14.0659 21.6012 13.9409 21.6131 13.9213 21.6289C13.8784 21.6645 13.7983 22.001 13.7495 22.3592C13.7436 22.3968 13.726 22.5136 13.7084 22.6165C13.6655 22.8857 13.6694 23.0242 13.7163 23.0519C13.7416 23.0638 14.0913 23.0717 14.7182 23.0717C15.5463 23.0717 15.8061 23.0816 15.8374 23.1153C15.8413 23.1173 15.8471 23.5032 15.851 23.9722C15.8569 24.5996 15.8647 24.8352 15.8823 24.8688L15.9077 24.9124H16.4604C16.8803 24.9124 17.019 24.9064 17.0327 24.8886C17.0717 24.8391 17.0795 24.6768 17.0795 23.9742C17.0776 23.5804 17.0834 23.232 17.0893 23.1964C17.0971 23.1509 17.1166 23.1291 17.1538 23.1153C17.2221 23.0915 17.7534 23.1113 17.7885 23.139C17.812 23.1568 17.8178 23.2993 17.8256 23.9821C17.8295 24.5422 17.8393 24.8213 17.8549 24.8569L17.8784 24.9124H18.4331C18.9233 24.9124 18.9897 24.9084 19.0131 24.8787C19.0346 24.853 19.0424 24.6749 19.0502 23.9802C19.0561 23.5052 19.0659 23.1093 19.0737 23.1014C19.0854 23.0895 19.2944 23.0599 19.6166 23.0242C20.1967 22.9629 20.7377 22.8144 21.1284 22.6106C21.978 22.1692 22.3764 21.3974 22.3452 20.2514C22.3374 19.909 22.3041 19.6973 22.2358 19.5389C22.226 19.5171 22.1987 19.4479 22.1752 19.3865C22.0932 19.1708 21.8745 18.8878 21.6772 18.7413C21.6245 18.7017 21.5737 18.6602 21.5659 18.6483C21.5581 18.6384 21.5502 18.6364 21.5502 18.6463C21.5502 18.6562 21.5327 18.6483 21.5131 18.6305C21.4702 18.5909 21.2573 18.4761 21.2573 18.4919C21.2573 18.4979 21.228 18.486 21.1948 18.4642C21.1596 18.4405 21.1225 18.4246 21.1147 18.4246C21.0913 18.4246 21.0034 18.3554 21.0034 18.3356C21.0034 18.3257 21.0815 18.2386 21.1791 18.1436C21.5385 17.7854 21.6889 17.4351 21.7182 16.8908C21.7456 16.398 21.6088 15.8874 21.3588 15.5469C21.2592 15.4104 21.062 15.2224 20.9155 15.1214C20.7963 15.0403 20.5366 14.8978 20.4916 14.8899C20.478 14.8879 20.4311 14.8701 20.3881 14.8503C20.1713 14.7533 19.6401 14.6266 19.3979 14.6148C19.3569 14.6128 19.3237 14.6049 19.3237 14.595C19.3237 14.587 19.2983 14.5811 19.267 14.5811C19.1733 14.5811 19.1166 14.5494 19.0834 14.4762C19.0541 14.4149 19.0502 14.3119 19.0483 13.6568C19.0483 13.1086 19.0405 12.8909 19.0229 12.8394C18.9975 12.7702 18.9956 12.7702 18.853 12.7543C18.7729 12.7444 18.5307 12.7425 18.312 12.7464C17.8706 12.7543 17.8686 12.7543 17.8393 12.8909C17.8295 12.9325 17.8217 13.2867 17.8198 13.6766C17.8198 14.1219 17.812 14.399 17.8002 14.4228C17.7885 14.4445 17.7612 14.4723 17.7358 14.4841C17.6791 14.5158 17.2416 14.5237 17.1791 14.496C17.0834 14.4505 17.0795 14.4248 17.0776 13.6232C17.0776 12.8652 17.0698 12.7959 17.0014 12.7702C16.9838 12.7623 16.8784 12.7543 16.7651 12.7484C16.4877 12.7345 16.3334 12.7306 16.3295 12.7326ZM18.2299 16.0081C18.5073 16.0338 18.851 16.1229 19.0268 16.2119C19.3979 16.4 19.5756 16.7384 19.5209 17.1421C19.4975 17.3064 19.4702 17.3737 19.3706 17.5063C19.3002 17.5993 19.1518 17.728 19.1147 17.728C19.101 17.728 19.0893 17.7339 19.0893 17.7438C19.0893 17.7715 18.7885 17.8962 18.6752 17.916C18.6401 17.9219 18.5756 17.9378 18.5327 17.9477C18.4213 17.9793 18.3979 17.9833 18.2416 17.9971C18.1655 18.0031 18.0952 18.015 18.0854 18.0189C18.0776 18.0249 17.8823 18.0328 17.6557 18.0367L17.2416 18.0446L17.1791 17.9892L17.1166 17.9358L17.1147 17.0551C17.1147 16.5702 17.1147 16.1407 17.1147 16.0991C17.1166 16.0417 17.1264 16.02 17.1616 16.0061C17.2221 15.9824 17.9604 15.9824 18.2299 16.0081ZM18.3959 19.3311C19.3881 19.4182 19.9174 19.723 20.0268 20.2712C20.0541 20.4058 20.0405 20.5998 19.9936 20.7462C19.9545 20.8709 19.9272 20.9164 19.7983 21.0649C19.7553 21.1143 19.56 21.2489 19.4506 21.3043C19.3276 21.3677 19.0034 21.4726 18.8549 21.4963C18.8178 21.5023 18.7651 21.5121 18.7377 21.5181C18.6284 21.5399 18.5854 21.5458 18.4448 21.5557C18.3647 21.5616 18.228 21.5735 18.142 21.5814C17.8862 21.6032 17.2456 21.5953 17.1987 21.5695C17.1752 21.5577 17.1459 21.528 17.1342 21.5042C17.1088 21.4567 17.1049 19.3727 17.1303 19.3489C17.1401 19.341 17.1674 19.3311 17.1948 19.3252C17.2944 19.3074 18.1694 19.3133 18.3959 19.3311Z" fill="#FF9800"/>
<path d="M17.6381 10.0013C17.6362 10.0033 17.4799 10.0112 17.2924 10.0191C17.1049 10.027 16.9253 10.0349 16.8921 10.0389C16.7592 10.0508 16.5913 10.0706 16.4819 10.0884C16.0483 10.1616 15.8745 10.1913 15.8628 10.1992C15.851 10.2071 15.6811 10.2447 15.603 10.2566C15.562 10.2625 15.021 10.4189 14.9682 10.4387C14.9526 10.4466 14.935 10.4525 14.9292 10.4545C14.9233 10.4565 14.9018 10.4644 14.8803 10.4723C14.8588 10.4803 14.7749 10.5119 14.6948 10.5436C14.6147 10.5733 14.5268 10.6049 14.4995 10.6129C14.4526 10.6267 14.3999 10.6505 14.1088 10.785C13.9311 10.8662 13.5971 11.0404 13.4448 11.1274C13.3745 11.169 13.2788 11.2244 13.2299 11.2521C13.0854 11.3353 12.9272 11.4402 12.9213 11.458C12.9174 11.4659 12.9057 11.4738 12.894 11.4738C12.8823 11.4738 12.8413 11.4995 12.8003 11.5332C12.7592 11.5648 12.7163 11.5925 12.7046 11.5925C12.6928 11.5925 12.6831 11.5985 12.6831 11.6064C12.6811 11.6163 12.6362 11.6539 12.5835 11.6915C12.0366 12.0774 11.3061 12.784 10.8862 13.3342C10.8491 13.3837 10.8139 13.4272 10.8081 13.4332C10.7768 13.4609 10.3588 14.0705 10.3022 14.1714C10.2827 14.207 10.2026 14.3436 10.1264 14.4782C9.56978 15.4519 9.16353 16.7087 9.0522 17.8071C9.04049 17.9219 9.02681 18.0506 9.02095 18.0941C8.99947 18.2821 8.99166 19.1668 9.01119 19.4202C9.05611 20.0357 9.19674 20.8412 9.33541 21.2727C9.35103 21.3221 9.36666 21.3795 9.37056 21.4013C9.40572 21.5656 9.68306 22.2919 9.82955 22.6007C10.3022 23.5883 10.8491 24.3641 11.603 25.1103C11.935 25.4408 11.978 25.4804 12.2436 25.6961C13.5639 26.7708 15.0756 27.4041 16.7768 27.5981C17.1596 27.6416 18.1284 27.6456 18.5131 27.608C20.2436 27.4318 21.8686 26.747 23.2104 25.6268C23.5464 25.3458 24.0053 24.8846 24.3452 24.4829C24.3745 24.4512 24.4799 24.3127 24.5815 24.1781C25.5815 22.852 26.1772 21.3063 26.3374 19.628C26.3647 19.3311 26.3745 18.575 26.353 18.2623C26.3139 17.6567 26.2143 17.0768 26.0327 16.392C26.0171 16.3267 25.9995 16.2634 25.9975 16.2495C25.9936 16.2357 25.9858 16.2179 25.978 16.2119C25.9702 16.204 25.9643 16.1842 25.9643 16.1684C25.9643 16.1387 25.81 15.6954 25.7592 15.5806C25.7456 15.5469 25.7143 15.4737 25.6909 15.4143C25.601 15.1808 25.3647 14.6959 25.2456 14.494C25.2007 14.4208 25.1635 14.3574 25.1635 14.3535C25.1635 14.3377 24.8393 13.8231 24.7885 13.7597C24.7807 13.7479 24.7182 13.6647 24.6518 13.5737C24.4272 13.2709 24.3745 13.2016 24.1948 12.9938C23.9741 12.7405 23.5132 12.2773 23.3276 12.1269C22.9565 11.8221 22.8764 11.7568 22.8393 11.7311C22.8159 11.7153 22.7827 11.6895 22.7671 11.6737C22.7514 11.6579 22.685 11.6104 22.6186 11.5668C22.5522 11.5233 22.4936 11.4837 22.4878 11.4758C22.4819 11.4698 22.4467 11.4461 22.4096 11.4263C22.3725 11.4045 22.3159 11.3669 22.2866 11.3412C22.2553 11.3155 22.2221 11.2957 22.2124 11.2957C22.2026 11.2957 22.1577 11.2719 22.1147 11.2442C22.0698 11.2165 21.9936 11.171 21.9448 11.1433C21.894 11.1156 21.8491 11.0839 21.8432 11.076C21.8374 11.0661 21.8139 11.0562 21.7944 11.0522C21.7729 11.0503 21.7339 11.0324 21.7065 11.0146C21.6264 10.9612 20.9799 10.6505 20.8862 10.6208C20.8589 10.6129 20.7885 10.5871 20.7299 10.5634C20.5698 10.5 20.3374 10.4229 20.271 10.411C20.2397 10.405 20.2085 10.3952 20.2026 10.3872C20.1967 10.3773 20.1714 10.3655 20.144 10.3595C20.1167 10.3536 20.0073 10.3259 19.9018 10.2982C19.6948 10.2428 19.6538 10.2329 19.4702 10.1972C19.4487 10.1933 19.4292 10.1893 19.4272 10.1873C19.4174 10.1794 19.2436 10.1458 19.1772 10.1379C19.1674 10.1359 19.1264 10.1299 19.0893 10.122C18.935 10.0923 18.5542 10.0488 18.2885 10.029C18.0444 10.0112 17.6479 9.99536 17.6381 10.0013ZM18.5034 10.9097C19.1987 10.9869 19.7378 11.1116 20.3647 11.3432C22.4526 12.1091 24.1733 13.7934 24.9858 15.8636C25.1323 16.2357 25.3217 16.8552 25.3667 17.1065C25.3725 17.1322 25.3803 17.1698 25.3862 17.1896C25.3921 17.2074 25.3999 17.2589 25.4077 17.3024C25.4135 17.346 25.4214 17.3955 25.4272 17.4113C25.4409 17.4568 25.4917 17.8329 25.5171 18.0644C25.5444 18.3296 25.5561 19.1193 25.5346 19.3905C25.5014 19.7942 25.4878 19.8991 25.4057 20.3405C25.3432 20.6749 25.1987 21.237 25.144 21.3597C25.1342 21.3815 25.1089 21.4528 25.0874 21.5181C24.9389 21.9693 24.6128 22.6363 24.2983 23.135C24.2319 23.2419 24.1635 23.3448 24.1479 23.3627C24.1323 23.3824 24.0835 23.4478 24.0405 23.5071C23.9135 23.6853 23.7612 23.8812 23.6245 24.0395C23.3706 24.3364 22.7866 24.9005 22.5737 25.0568C22.5385 25.0806 22.4428 25.1538 22.3589 25.2191C22.0698 25.4408 21.5796 25.7515 21.3452 25.8643C21.271 25.8999 21.2046 25.9356 21.1987 25.9415C21.1538 25.9969 20.1674 26.3967 20.0796 26.3967C20.062 26.3967 20.0464 26.4066 20.0464 26.4205C20.0464 26.4323 20.0424 26.4383 20.0346 26.4323C20.0288 26.4264 19.9839 26.4343 19.9331 26.4502C19.8237 26.4838 19.5835 26.5531 19.5288 26.5649C19.5073 26.5709 19.4506 26.5828 19.4018 26.5946C19.3061 26.6164 18.9975 26.6718 18.9038 26.6857C18.8725 26.6896 18.8022 26.7015 18.7475 26.7114C18.5776 26.745 18.1694 26.7728 17.7905 26.7787C17.3589 26.7846 16.8901 26.753 16.5112 26.6936C16.0151 26.6144 15.4682 26.4818 15.1635 26.367C14.7006 26.1948 14.1655 25.9633 14.1284 25.9197C14.1225 25.9138 14.0874 25.898 14.0503 25.8821C13.9878 25.8584 13.8686 25.7931 13.7124 25.6961C13.6772 25.6743 13.6323 25.6486 13.6108 25.6367C13.5893 25.6229 13.5073 25.5694 13.4272 25.516C13.3491 25.4606 13.2631 25.4032 13.2378 25.3873C13.0698 25.2765 12.6088 24.9143 12.4585 24.7738C12.3842 24.7045 12.1362 24.471 12.0893 24.4255C12.0463 24.3839 11.7163 24.0158 11.6772 23.9683C11.6557 23.9406 11.5952 23.8614 11.5405 23.7941C11.1108 23.2518 10.7846 22.7135 10.4995 22.0821C10.1557 21.3182 9.97603 20.6314 9.84127 19.5686C9.81783 19.3727 9.81588 18.4048 9.84127 18.1337C9.9897 16.491 10.5971 15.0106 11.6557 13.7103C11.8315 13.4925 12.3686 12.9483 12.5952 12.7563C13.9174 11.6361 15.4253 11.0146 17.1557 10.88C17.4526 10.8563 18.1733 10.8721 18.5034 10.9097Z" fill="#FF9800"/>
<path d="M16.3295 12.7326C16.3276 12.7345 16.2456 12.7405 16.1459 12.7484C16.0463 12.7543 15.9526 12.7662 15.935 12.7722C15.8608 12.8018 15.8569 12.8493 15.851 13.6509C15.8471 14.1754 15.8393 14.4465 15.8237 14.4762C15.7807 14.5613 15.7416 14.5653 14.7299 14.5692C14.2006 14.5732 13.7534 14.5811 13.7338 14.589C13.6733 14.6167 13.6596 14.7058 13.6538 15.066C13.6459 15.5034 13.6635 15.8359 13.6967 15.8755C13.7163 15.8992 13.8061 15.9052 14.2026 15.9111C14.6577 15.917 14.6909 15.919 14.7827 15.9626C14.9077 16.0219 14.9604 16.0714 15.0229 16.1941L15.0717 16.2931L15.0737 18.6562C15.0756 19.9565 15.0698 21.1044 15.062 21.2074C15.0502 21.3914 15.0483 21.3954 14.9741 21.4627C14.851 21.5775 14.8334 21.5814 14.2885 21.5953C14.0659 21.6012 13.9409 21.6131 13.9213 21.6289C13.8784 21.6645 13.7983 22.001 13.7495 22.3592C13.7436 22.3968 13.726 22.5136 13.7084 22.6165C13.6655 22.8857 13.6694 23.0242 13.7163 23.0519C13.7416 23.0638 14.0913 23.0717 14.7182 23.0717C15.5463 23.0717 15.8061 23.0816 15.8374 23.1153C15.8413 23.1173 15.8471 23.5032 15.851 23.9722C15.8569 24.5996 15.8647 24.8352 15.8823 24.8688L15.9077 24.9124H16.4604C16.8803 24.9124 17.019 24.9064 17.0327 24.8886C17.0717 24.8391 17.0795 24.6768 17.0795 23.9742C17.0776 23.5804 17.0834 23.232 17.0893 23.1964C17.0971 23.1509 17.1166 23.1291 17.1538 23.1153C17.2221 23.0915 17.7534 23.1113 17.7885 23.139C17.812 23.1568 17.8178 23.2993 17.8256 23.9821C17.8295 24.5422 17.8393 24.8213 17.8549 24.8569L17.8784 24.9124H18.4331C18.9233 24.9124 18.9897 24.9084 19.0131 24.8787C19.0346 24.853 19.0424 24.6749 19.0502 23.9802C19.0561 23.5052 19.0659 23.1093 19.0737 23.1014C19.0854 23.0895 19.2944 23.0599 19.6166 23.0242C20.1967 22.9629 20.7377 22.8144 21.1284 22.6106C21.978 22.1692 22.3764 21.3974 22.3452 20.2514C22.3374 19.909 22.3041 19.6973 22.2358 19.5389C22.226 19.5171 22.1987 19.4479 22.1752 19.3865C22.0932 19.1708 21.8745 18.8878 21.6772 18.7413C21.6245 18.7017 21.5737 18.6602 21.5659 18.6483C21.5581 18.6384 21.5502 18.6364 21.5502 18.6463C21.5502 18.6562 21.5327 18.6483 21.5131 18.6305C21.4702 18.5909 21.2573 18.4761 21.2573 18.4919C21.2573 18.4979 21.228 18.486 21.1948 18.4642C21.1596 18.4405 21.1225 18.4246 21.1147 18.4246C21.0913 18.4246 21.0034 18.3554 21.0034 18.3356C21.0034 18.3257 21.0815 18.2386 21.1791 18.1436C21.5385 17.7854 21.6889 17.4351 21.7182 16.8908C21.7456 16.398 21.6088 15.8874 21.3588 15.5469C21.2592 15.4104 21.062 15.2224 20.9155 15.1214C20.7963 15.0403 20.5366 14.8978 20.4916 14.8899C20.478 14.8879 20.4311 14.8701 20.3881 14.8503C20.1713 14.7533 19.6401 14.6266 19.3979 14.6148C19.3569 14.6128 19.3237 14.6049 19.3237 14.595C19.3237 14.587 19.2983 14.5811 19.267 14.5811C19.1733 14.5811 19.1166 14.5494 19.0834 14.4762C19.0541 14.4149 19.0502 14.3119 19.0483 13.6568C19.0483 13.1086 19.0405 12.8909 19.0229 12.8394C18.9975 12.7702 18.9956 12.7702 18.853 12.7543C18.7729 12.7444 18.5307 12.7425 18.312 12.7464C17.8706 12.7543 17.8686 12.7543 17.8393 12.8909C17.8295 12.9325 17.8217 13.2867 17.8198 13.6766C17.8198 14.1219 17.812 14.399 17.8002 14.4228C17.7885 14.4445 17.7612 14.4723 17.7358 14.4841C17.6791 14.5158 17.2416 14.5237 17.1791 14.496C17.0834 14.4505 17.0795 14.4248 17.0776 13.6232C17.0776 12.8652 17.0698 12.7959 17.0014 12.7702C16.9838 12.7623 16.8784 12.7543 16.7651 12.7484C16.4877 12.7345 16.3334 12.7306 16.3295 12.7326ZM18.2299 16.0081C18.5073 16.0338 18.851 16.1229 19.0268 16.2119C19.3979 16.4 19.5756 16.7384 19.5209 17.1421C19.4975 17.3064 19.4702 17.3737 19.3706 17.5063C19.3002 17.5993 19.1518 17.728 19.1147 17.728C19.101 17.728 19.0893 17.7339 19.0893 17.7438C19.0893 17.7715 18.7885 17.8962 18.6752 17.916C18.6401 17.9219 18.5756 17.9378 18.5327 17.9477C18.4213 17.9793 18.3979 17.9833 18.2416 17.9971C18.1655 18.0031 18.0952 18.015 18.0854 18.0189C18.0776 18.0249 17.8823 18.0328 17.6557 18.0367L17.2416 18.0446L17.1791 17.9892L17.1166 17.9358L17.1147 17.0551C17.1147 16.5702 17.1147 16.1407 17.1147 16.0991C17.1166 16.0417 17.1264 16.02 17.1616 16.0061C17.2221 15.9824 17.9604 15.9824 18.2299 16.0081ZM18.3959 19.3311C19.3881 19.4182 19.9174 19.723 20.0268 20.2712C20.0541 20.4058 20.0405 20.5998 19.9936 20.7462C19.9545 20.8709 19.9272 20.9164 19.7983 21.0649C19.7553 21.1143 19.56 21.2489 19.4506 21.3043C19.3276 21.3677 19.0034 21.4726 18.8549 21.4963C18.8178 21.5023 18.7651 21.5121 18.7377 21.5181C18.6284 21.5399 18.5854 21.5458 18.4448 21.5557C18.3647 21.5616 18.228 21.5735 18.142 21.5814C17.8862 21.6032 17.2456 21.5953 17.1987 21.5695C17.1752 21.5577 17.1459 21.528 17.1342 21.5042C17.1088 21.4567 17.1049 19.3727 17.1303 19.3489C17.1401 19.341 17.1674 19.3311 17.1948 19.3252C17.2944 19.3074 18.1694 19.3133 18.3959 19.3311Z" fill="#FF9800"/>
</svg>
