<svg width="40" height="40" viewBox="0 0 40 40" fill="none" xmlns="http://www.w3.org/2000/svg">
<path d="M23.4281 11.224H10.924H5.95202L10.988 6.20399C11.248 5.92799 11.376 5.61199 11.376 5.24399C11.376 4.86399 11.252 4.56399 10.984 4.29599C10.72 4.03199 10.408 3.90399 10.036 3.90399C9.65203 3.90399 9.34003 4.02799 9.08403 4.28799L1.76401 11.608C1.50401 11.868 1.38 12.18 1.38 12.564V12.572C1.38 12.952 1.50801 13.264 1.76401 13.524L9.08003 20.836C9.35603 21.1 9.67203 21.224 10.04 21.224C10.412 21.224 10.72 21.096 10.984 20.836L10.988 20.832L10.996 20.824C11.256 20.564 11.384 20.256 11.384 19.884C11.384 19.516 11.256 19.204 10.996 18.924L5.95202 13.904H10.924H10.952H23.4561H24.6961C25.0681 13.904 25.3801 13.776 25.6441 13.512C25.9081 13.248 26.0361 12.936 26.0361 12.564C26.0361 12.192 25.9081 11.88 25.6441 11.616C25.3801 11.352 25.0681 11.224 24.6961 11.224H23.4561H23.4281Z" fill="#0E57D6"/>
<path d="M5.95203 13.904L10.988 18.924C11.248 19.2 11.376 19.516 11.376 19.884C11.376 20.256 11.248 20.564 10.988 20.824L10.98 20.832L10.976 20.836C10.716 21.096 10.404 21.224 10.032 21.224C9.66404 21.224 9.35204 21.096 9.07204 20.836L1.76403 13.52C1.50403 13.26 1.38003 12.948 1.38003 12.568V12.56C1.38003 12.176 1.50803 11.864 1.76403 11.604L9.08404 4.28401C9.34404 4.02401 9.65604 3.90001 10.036 3.90001C10.412 3.90001 10.72 4.02801 10.984 4.29201C11.252 4.56001 11.376 4.86001 11.376 5.24001C11.376 5.60801 11.248 5.92401 10.988 6.20001L5.95203 11.224H10.924V10.244H8.32404L11.688 6.89201L11.692 6.88801L11.696 6.88401C12.136 6.42401 12.36 5.87201 12.36 5.24401C12.36 4.60401 12.132 4.05201 11.68 3.60401C11.228 3.15201 10.676 2.92401 10.04 2.92401C9.39204 2.92401 8.84004 3.14801 8.39204 3.59601L1.07203 10.916C0.624025 11.36 0.400024 11.916 0.400024 12.56V12.564C0.400024 13.212 0.624025 13.764 1.07203 14.212L8.39204 21.532L8.40004 21.54C8.86404 21.98 9.41204 22.204 10.036 22.204C10.672 22.204 11.224 21.976 11.672 21.528L11.676 21.524L11.684 21.516C12.132 21.068 12.356 20.52 12.356 19.884C12.356 19.26 12.132 18.708 11.692 18.244L11.688 18.24L8.32004 14.884H10.92V13.904H5.95203Z" fill="#0E57D6"/>
<path d="M26.3401 10.9201C25.888 10.4681 25.336 10.2401 24.7 10.2401H23.46V11.2201H24.7C25.072 11.2201 25.384 11.3481 25.648 11.6121C25.912 11.8801 26.044 12.1881 26.044 12.5601C26.044 12.9321 25.916 13.2441 25.652 13.5081C25.388 13.7721 25.076 13.9001 24.704 13.9001H23.464V14.8801H24.704C25.34 14.8801 25.892 14.6521 26.3441 14.2001C26.7961 13.7481 27.0241 13.1961 27.0241 12.5601C27.0201 11.9281 26.7921 11.3761 26.3401 10.9201Z" fill="#0E57D6"/>
<path d="M10.9241 11.224H23.424H23.456V10.244H10.9521H10.9241V11.224Z" fill="#0E57D6"/>
<path d="M23.4599 13.904H10.956H10.928V14.884H23.4279H23.4599V13.904Z" fill="#0E57D6"/>
<path d="M16.5721 28.776H29.0721H34.0441L29.0081 33.796C28.7481 34.072 28.6201 34.388 28.6201 34.756C28.6201 35.136 28.7441 35.436 29.0121 35.704C29.2761 35.968 29.5881 36.096 29.9601 36.096C30.3441 36.096 30.6561 35.972 30.9121 35.712L38.2321 28.392C38.4921 28.132 38.6161 27.82 38.6161 27.436V27.428C38.6161 27.048 38.4881 26.736 38.2321 26.476L30.9201 19.164C30.6441 18.9 30.3281 18.776 29.9601 18.776C29.5881 18.776 29.2801 18.904 29.0161 19.164L29.0121 19.168L29.0041 19.176C28.7441 19.436 28.6161 19.744 28.6161 20.116C28.6161 20.484 28.7441 20.796 29.0041 21.076L34.0401 26.096H29.0761H29.0481H16.5401H15.3001C14.9281 26.096 14.6161 26.224 14.3521 26.488C14.0881 26.752 13.9601 27.064 13.9601 27.436C13.9601 27.808 14.0881 28.12 14.3561 28.384C14.6201 28.648 14.9321 28.776 15.3041 28.776H16.5441H16.5721Z" fill="#0E57D6"/>
<path d="M34.048 26.0961L29.008 21.0761C28.748 20.8001 28.62 20.4841 28.62 20.1161C28.62 19.7441 28.748 19.4361 29.008 19.1761L29.016 19.1681L29.02 19.1641C29.28 18.9041 29.592 18.7761 29.964 18.7761C30.332 18.7761 30.644 18.9041 30.924 19.1641L38.236 26.4801C38.496 26.7401 38.62 27.0521 38.62 27.432V27.4401C38.62 27.824 38.492 28.136 38.236 28.396L30.916 35.716C30.656 35.976 30.344 36.1 29.964 36.1C29.588 36.1 29.28 35.972 29.016 35.708C28.748 35.44 28.624 35.14 28.624 34.76C28.624 34.392 28.752 34.076 29.012 33.8L34.048 28.78H29.076V29.76H31.676L28.312 33.112L28.308 33.116L28.304 33.12C27.864 33.58 27.64 34.132 27.64 34.76C27.64 35.4 27.868 35.952 28.32 36.4C28.772 36.852 29.324 37.08 29.96 37.08C30.608 37.08 31.16 36.852 31.608 36.408L38.928 29.088C39.372 28.64 39.6 28.088 39.6 27.4401V27.4361C39.6 26.7881 39.376 26.2361 38.928 25.7881L31.608 18.4681L31.6 18.4601C31.136 18.0201 30.588 17.7961 29.964 17.7961C29.328 17.7961 28.776 18.0241 28.328 18.4721L28.324 18.4761L28.316 18.4841C27.868 18.9281 27.64 19.4801 27.64 20.1161C27.64 20.7401 27.864 21.2921 28.304 21.7561L28.308 21.7601L31.676 25.1161H29.076V26.0961H34.048Z" fill="#0E57D6"/>
<path d="M13.6601 29.0801C14.1121 29.5321 14.664 29.7601 15.3 29.7601H16.54V28.7801H15.3C14.928 28.7801 14.616 28.6521 14.352 28.3881C14.0881 28.1201 13.9561 27.8121 13.9561 27.4401C13.9561 27.0681 14.0841 26.7561 14.3481 26.4921C14.612 26.2281 14.924 26.1001 15.296 26.1001H16.536V25.1201H15.296C14.66 25.1201 14.1081 25.3481 13.6561 25.8001C13.2041 26.2521 12.9761 26.8041 12.9761 27.4401C12.9801 28.0721 13.2081 28.6241 13.6601 29.0801Z" fill="#0E57D6"/>
<path d="M29.0761 28.7761H16.5761H16.5441V29.7559H29.0481H29.0761V28.7761V28.7761Z" fill="#0E57D6"/>
<path d="M16.54 26.096H29.0441H29.0721V25.116H16.572H16.54V26.096Z" fill="#0E57D6"/>
</svg>
