<svg width="40" height="40" viewBox="0 0 40 40" fill="none" xmlns="http://www.w3.org/2000/svg">
<path d="M0.223064 26.9775C0.43689 26.7895 0.750473 26.7526 1.00586 26.8824C8.31846 30.6149 17.2927 28.1322 21.4335 21.2298C25.5742 14.3275 23.3224 5.60772 16.3067 1.3783C16.0615 1.23074 15.9391 0.950288 16.0014 0.678727C16.0633 0.406721 16.2961 0.201384 16.5829 0.166272C21.1287 -0.395962 25.6301 0.473834 29.6032 2.68188C34.409 5.35083 37.8469 9.66292 39.2832 14.8217C40.7194 19.9805 39.9824 25.3686 37.2072 29.994C34.4326 34.6194 29.9524 37.928 24.5919 39.3102C22.8019 39.7715 20.9855 40 19.1807 40C15.5807 40 12.0274 39.0915 8.82647 37.3128C4.85428 35.1057 1.82006 31.7883 0.0531082 27.7189C-0.0586548 27.462 0.00969696 27.1655 0.223064 26.9775Z" fill="black"/>
</svg>
